<svg xmlns="http://www.w3.org/2000/svg" viewBox="0 0 89 89">
  <defs>
    <style>
      .cls-1 {
        fill: #f2f2f2;
      }

      .cls-2 {
        fill: #207249;
      }
    </style>
  </defs>
  <g id="Group_1459" data-name="Group 1459" transform="translate(-143 -97)">
    <circle id="_5" data-name="5" class="cls-1" cx="44.5" cy="44.5" r="44.5" transform="translate(143 97)"/>
    <g id="Group_1458" data-name="Group 1458" transform="translate(176.051 129.831)">
      <path id="Path_1506" data-name="Path 1506" class="cls-2" d="M.9,309.3c.058-.43.1-.864.177-1.289a11.334,11.334,0,0,1,4.8-7.4,8.937,8.937,0,0,0,6.362,2.587,8.964,8.964,0,0,0,6.367-2.6c.359.284.735.554,1.081.86a11.207,11.207,0,0,1,3.815,7.253c.022.195.053.394.08.589v.709H.9C.9,309.776.9,309.536.9,309.3Z" transform="translate(-0.9 -287.326)"/>
      <path id="Path_1507" data-name="Path 1507" class="cls-2" d="M110.882,1c.447.089.9.146,1.338.27a6.789,6.789,0,1,1-3.292-.12c.292-.066.594-.1.891-.151Z" transform="translate(-99.003 -1)"/>
    </g>
  </g>
</svg>
