<svg xmlns="http://www.w3.org/2000/svg" viewBox="0 0 326.5 22.912">
  <defs>
    <style>
      .cls-1 {
        fill: #207249;
      }

      .cls-2 {
        fill: none;
        stroke: #207249;
      }
    </style>
  </defs>
  <g id="number" transform="translate(-24 -651.895)">
    <g id="Group_1569" data-name="Group 1569" transform="translate(150 508)">
      <path id="Path_1528" data-name="Path 1528" class="cls-1" d="M20.164,19.076A1.19,1.19,0,0,0,21.351,17.9a1.982,1.982,0,0,0,1.8-1.907h.009c.009,0,.018,0,.027,0s.04,0,.058-.006.018,0,.024,0l.064-.009a.011.011,0,0,0,.009,0,2.383,2.383,0,0,0,.29-.067c.006,0,.012,0,.018-.006l.052-.018.021-.009.046-.018.024-.009.043-.018.024-.009.043-.018a.181.181,0,0,0,.024-.012.257.257,0,0,0,.04-.021c.009,0,.015-.009.024-.012s.024-.015.037-.021l.021-.012c.012-.006.024-.015.037-.021a.076.076,0,0,1,.021-.012.308.308,0,0,0,.034-.021.129.129,0,0,1,.021-.015l.033-.024c.006-.006.012-.009.018-.015l.034-.024c.006-.006.012-.009.018-.015a.274.274,0,0,0,.031-.027c.006-.006.012-.009.015-.015l.031-.027.015-.015.03-.027.012-.012a.282.282,0,0,1,.031-.031s.006-.009.009-.012.021-.021.031-.034,0-.006.006-.009a2.022,2.022,0,0,0,.156-.217l0,0c.006-.012.015-.024.021-.037s0-.006.006-.012l.018-.037a.023.023,0,0,0,.006-.012c.006-.012.012-.021.018-.034s.006-.009.006-.015a.157.157,0,0,0,.015-.034.051.051,0,0,0,.006-.015c.006-.012.009-.021.015-.034a.051.051,0,0,0,.006-.015.126.126,0,0,0,.012-.031c0-.006,0-.012.006-.018s.009-.021.012-.031,0-.012.006-.018a.127.127,0,0,1,.012-.031c0-.006,0-.012.006-.018l.009-.031c0-.006,0-.012.006-.018s.006-.021.009-.031,0-.012.006-.018.006-.021.009-.031a.129.129,0,0,1,0-.015c0-.009.006-.021.009-.031s0-.009,0-.015a.109.109,0,0,0,.006-.031c0-.006,0-.009,0-.015s0-.021.006-.031,0-.009,0-.012,0-.021.006-.031a.011.011,0,0,1,0-.009c0-.012,0-.021.006-.034v0c.009-.052.015-.1.021-.153v-.006c0-.009,0-.018,0-.027v-.012a.068.068,0,0,1,0-.024v-.012a.051.051,0,0,1,0-.021v-.281h0c.879,0,1.141-.5,1.269-1.3a1.576,1.576,0,0,1,.629-1,.233.233,0,0,1,.034-.024l.061-.043c.031-.018.055-.034.076-.049l.037-.021a.2.2,0,0,1,.03-.015l-.03-.015c-.009-.006-.024-.012-.037-.021s-.046-.027-.076-.049l-.061-.043-.034-.024-.07-.055a1.728,1.728,0,0,1-.262-.272,1.482,1.482,0,0,1-.3-.668c-.128-.8-.391-1.3-1.269-1.3V8.88h0v-.2a.051.051,0,0,0,0-.021V8.642a.068.068,0,0,0,0-.024V8.606c0-.009,0-.018,0-.027V8.572c-.006-.049-.012-.1-.021-.153v0c0-.012,0-.021-.006-.034a.011.011,0,0,0,0-.009c0-.009,0-.021-.006-.031s0-.009,0-.012,0-.021-.006-.031,0-.009,0-.015a.109.109,0,0,1-.006-.031c0-.006,0-.009,0-.015s-.006-.021-.009-.031a.032.032,0,0,1,0-.015c0-.009-.006-.021-.009-.031s0-.012-.006-.018l-.009-.031c0-.006,0-.012-.006-.018l-.009-.031c0-.006,0-.012-.006-.018a.127.127,0,0,0-.012-.031c0-.006,0-.012-.006-.018s-.009-.021-.012-.031a.043.043,0,0,1-.006-.018c0-.009-.009-.021-.012-.031a.043.043,0,0,1-.006-.018.162.162,0,0,0-.015-.034.051.051,0,0,1-.006-.015c-.006-.012-.009-.021-.015-.034s-.006-.009-.006-.015-.012-.021-.018-.034-.006-.009-.006-.012l-.018-.037s0-.006-.006-.012-.015-.024-.021-.037,0,0,0-.006a2.023,2.023,0,0,0-.156-.217s0-.006-.006-.009a.3.3,0,0,0-.031-.034s-.006-.009-.009-.012a.29.29,0,0,0-.031-.031l-.012-.012a.277.277,0,0,0-.03-.027l-.015-.015-.031-.027c-.006-.006-.012-.009-.015-.015l-.031-.027c-.006-.006-.012-.009-.018-.015L24.22,7.2c-.006-.006-.012-.009-.018-.015l-.033-.024a.124.124,0,0,0-.021-.015c-.012-.009-.024-.015-.034-.021a.077.077,0,0,0-.021-.012c-.012-.006-.024-.015-.037-.021l-.021-.012c-.012-.006-.024-.015-.037-.021a.186.186,0,0,0-.024-.012.249.249,0,0,1-.04-.021.091.091,0,0,1-.024-.012l-.043-.018-.024-.009L23.8,6.964l-.024-.009-.046-.018a.057.057,0,0,0-.021-.006l-.052-.018c-.006,0-.012,0-.018-.006a2.523,2.523,0,0,0-.29-.067.011.011,0,0,1-.009,0l-.064-.009c-.009,0-.018,0-.024,0a.376.376,0,0,0-.058-.006c-.009,0-.018,0-.027,0h-.009a1.984,1.984,0,0,0-1.8-1.907,1.19,1.19,0,0,0-1.187-1.175h0A3.809,3.809,0,0,0,16.362,0H10.418A3.816,3.816,0,0,0,6.9,3.812,1.19,1.19,0,0,0,5.716,4.986a1.982,1.982,0,0,0-1.8,1.907H3.9c-.009,0-.018,0-.028,0s-.04,0-.058.006-.018,0-.027,0l-.061.009a.011.011,0,0,0-.009,0,2.388,2.388,0,0,0-.29.067c-.006,0-.012,0-.018.006L3.36,7.01l-.021.009-.046.018-.024.009-.043.018L3.2,7.074l-.043.018a.184.184,0,0,0-.024.012.256.256,0,0,0-.04.021c-.009,0-.015.009-.024.012s-.024.015-.037.021l-.021.012c-.012.006-.024.015-.037.021a.076.076,0,0,1-.021.012.321.321,0,0,0-.034.021.13.13,0,0,1-.021.015l-.034.024c-.006.006-.012.009-.018.015a.318.318,0,0,1-.033.024c-.006.006-.012.009-.018.015l-.031.027c-.006.006-.012.009-.015.015l-.03.027L2.7,7.406l-.03.027-.012.012c-.009.009-.018.021-.027.031s-.006.009-.009.012a.307.307,0,0,1-.031.034s0,.006-.006.009a2.031,2.031,0,0,0-.156.217l0,0c-.006.012-.015.024-.021.037s0,.006-.006.012l-.018.037a.023.023,0,0,0-.006.012c-.006.012-.012.021-.018.034s-.006.009-.006.015-.009.021-.015.034a.052.052,0,0,0-.006.015c-.006.012-.009.021-.015.034A.051.051,0,0,0,2.31,8c0,.009-.009.021-.012.031a.043.043,0,0,0-.006.018c0,.009-.009.021-.012.031s0,.012-.006.018a.128.128,0,0,1-.012.031c0,.006,0,.012-.006.018s-.006.021-.009.031,0,.012-.006.018-.006.021-.009.031,0,.012-.006.018l-.009.031a.132.132,0,0,1,0,.015c0,.009-.006.021-.009.031s0,.009,0,.015a.108.108,0,0,0-.006.031c0,.006,0,.009,0,.015a.107.107,0,0,0-.006.031c0,.006,0,.009,0,.012s0,.021-.006.031a.011.011,0,0,1,0,.009c0,.012,0,.021-.006.034v0c-.009.052-.015.1-.021.153v.006c0,.009,0,.018,0,.027v.012a.067.067,0,0,1,0,.024v.012a.051.051,0,0,1,0,.021v.281h0c-.879,0-1.141.5-1.27,1.3a1.589,1.589,0,0,1-.629,1,.232.232,0,0,1-.034.024L.143,11.4c-.031.018-.055.034-.076.049l-.037.021a.2.2,0,0,1-.03.015l.03.015c.009.006.024.012.037.021s.046.027.076.049l.061.043.034.024.07.055a1.724,1.724,0,0,1,.262.272,1.481,1.481,0,0,1,.3.668c.128.8.391,1.3,1.27,1.3v.284a.051.051,0,0,0,0,.021v.012a.067.067,0,0,0,0,.024v.012c0,.009,0,.018,0,.027v.006c.006.049.012.1.021.153v0c0,.012,0,.021.006.034a.011.011,0,0,0,0,.009c0,.009,0,.021.006.031s0,.009,0,.012,0,.021.006.031,0,.009,0,.015a.108.108,0,0,1,.006.031c0,.006,0,.009,0,.015s.006.021.009.031a.033.033,0,0,1,0,.015l.009.031c0,.006,0,.012.006.018s.006.021.009.031,0,.012.006.018.006.021.009.031,0,.012.006.018a.127.127,0,0,0,.012.031c0,.006,0,.012.006.018s.009.021.012.031,0,.012.006.018.009.021.012.031A.044.044,0,0,1,2.316,15c.006.012.009.021.015.034a.051.051,0,0,1,.006.015c.006.012.009.021.015.034s.006.009.006.015.012.021.018.034.006.009.006.012l.018.037s0,.006.006.012.015.024.021.037,0,0,0,.006a2.035,2.035,0,0,0,.156.217s0,.006.006.009a.3.3,0,0,0,.031.034s.006.009.009.012.018.021.027.031l.012.012a.277.277,0,0,0,.03.027l.015.015a.278.278,0,0,0,.03.027l.015.015.031.027c.006.006.012.009.018.015l.033.024c.006.006.012.009.018.015l.034.024a.13.13,0,0,0,.021.015c.012.009.024.015.034.021a.076.076,0,0,0,.021.012c.012.006.024.015.037.021l.021.012c.012.006.024.015.037.021a.18.18,0,0,0,.024.012l.04.021a.09.09,0,0,1,.024.012l.043.018.024.009.043.018.024.009.046.018a.056.056,0,0,0,.021.006l.052.018c.006,0,.012,0,.018.006a2.53,2.53,0,0,0,.29.067.011.011,0,0,1,.009,0l.061.009c.009,0,.018,0,.027,0a.375.375,0,0,0,.058.006c.009,0,.018,0,.028,0h.009a1.984,1.984,0,0,0,1.8,1.907A1.19,1.19,0,0,0,6.9,19.165h0a3.813,3.813,0,0,0,3.8,3.747h5.946A3.854,3.854,0,0,0,20.164,19.076Z" transform="translate(51.07 166.807) rotate(180)"/>
    </g>
    <line id="Line_169" data-name="Line 169" class="cls-2" x2="150" transform="translate(200.5 663.5)"/>
    <line id="Line_170" data-name="Line 170" class="cls-2" x2="151.5" transform="translate(24 663.5)"/>
  </g>
</svg>
